<svg width="240" height="164" viewBox="0 0 240 164" fill="none" xmlns="http://www.w3.org/2000/svg">
<path d="M219.5 -285L240.981 -154.615L316.907 -262.768L279.689 -135.974L395.021 -200.473L306.475 -102.385L438.371 -110.456L316.035 -60.5L438.371 -10.5441L306.475 -18.6151L395.021 79.4734L279.689 14.9741L316.907 141.768L240.981 33.6147L219.5 164L198.019 33.6147L122.093 141.768L159.311 14.9741L43.9788 79.4734L132.525 -18.6151L0.628677 -10.5441L122.965 -60.5L0.628677 -110.456L132.525 -102.385L43.9788 -200.473L159.311 -135.974L122.093 -262.768L198.019 -154.615L219.5 -285Z" fill="#F4F4F4"/>
</svg>
