<svg width="240" height="286" viewBox="0 0 240 286" fill="none" xmlns="http://www.w3.org/2000/svg">
<path d="M219.5 0L240.981 130.385L316.907 22.2325L279.689 149.026L395.021 84.5265L306.475 182.615L438.371 174.544L316.035 224.5L438.371 274.456L306.475 266.385L395.021 364.473L279.689 299.974L316.907 426.768L240.981 318.615L219.5 449L198.019 318.615L122.093 426.768L159.311 299.974L43.9788 364.473L132.525 266.385L0.628677 274.456L122.965 224.5L0.628677 174.544L132.525 182.615L43.9788 84.5265L159.311 149.026L122.093 22.2325L198.019 130.385L219.5 0Z" fill="#F4F4F4"/>
</svg>
