<svg width="336" height="187" viewBox="0 0 336 187" fill="none" xmlns="http://www.w3.org/2000/svg">
<path d="M109.5 -276L131.651 -141.549L209.944 -253.074L171.565 -122.327L290.494 -188.838L199.187 -87.6909L335.196 -96.0136L209.045 -44.5L335.196 7.01361L199.187 -1.30905L290.494 99.8379L171.565 33.3274L209.944 164.074L131.651 52.5492L109.5 187L87.3492 52.5492L9.05591 164.074L47.4347 33.3274L-71.494 99.8379L19.813 -1.30905L-116.196 7.01361L9.955 -44.5L-116.196 -96.0136L19.813 -87.6909L-71.494 -188.838L47.4347 -122.327L9.05591 -253.074L87.3492 -141.549L109.5 -276Z" fill="#F4F4F4"/>
</svg>
